<mxfile host="app.diagrams.net" agent="Mozilla/5.0 (Windows NT 10.0; Win64; x64; rv:139.0) Gecko/20100101 Firefox/139.0" version="27.1.3">
  <diagram name="View Counts Page &quot;Device&quot;" id="T9-EUAQ9VFt1JrhXZDe9">
    <mxGraphModel dx="1426" dy="751" grid="1" gridSize="10" guides="1" tooltips="1" connect="1" arrows="1" fold="1" page="1" pageScale="1" pageWidth="1169" pageHeight="827" math="0" shadow="0">
      <root>
        <mxCell id="n13ThCYYshuHah-QFAla-0" />
        <mxCell id="n13ThCYYshuHah-QFAla-1" parent="n13ThCYYshuHah-QFAla-0" />
        <mxCell id="n13ThCYYshuHah-QFAla-2" value="" style="rounded=0;whiteSpace=wrap;html=1;" parent="n13ThCYYshuHah-QFAla-1" vertex="1">
          <mxGeometry x="10" y="10" width="1150" height="70" as="geometry" />
        </mxCell>
        <mxCell id="n13ThCYYshuHah-QFAla-3" value="People Counting Demo" style="text;strokeColor=none;fillColor=none;html=1;fontSize=24;fontStyle=1;verticalAlign=middle;align=center;" parent="n13ThCYYshuHah-QFAla-1" vertex="1">
          <mxGeometry x="460" y="25" width="250" height="40" as="geometry" />
        </mxCell>
        <mxCell id="n13ThCYYshuHah-QFAla-4" value="" style="shape=image;html=1;verticalAlign=top;verticalLabelPosition=bottom;labelBackgroundColor=#ffffff;imageAspect=0;aspect=fixed;image=https://cdn4.iconfinder.com/data/icons/evil-icons-user-interface/64/menu-128.png" parent="n13ThCYYshuHah-QFAla-1" vertex="1">
          <mxGeometry x="20" y="15" width="60" height="60" as="geometry" />
        </mxCell>
        <mxCell id="n13ThCYYshuHah-QFAla-5" value="" style="rounded=0;whiteSpace=wrap;html=1;" parent="n13ThCYYshuHah-QFAla-1" vertex="1">
          <mxGeometry x="20" y="100" width="1130" height="660" as="geometry" />
        </mxCell>
        <mxCell id="n13ThCYYshuHah-QFAla-6" value="" style="rounded=0;whiteSpace=wrap;html=1;" parent="n13ThCYYshuHah-QFAla-1" vertex="1">
          <mxGeometry x="20" y="100" width="1130" height="60" as="geometry" />
        </mxCell>
        <mxCell id="n13ThCYYshuHah-QFAla-7" value="Device Count for &quot;Device Name&quot;" style="text;strokeColor=none;fillColor=none;html=1;fontSize=24;fontStyle=1;verticalAlign=middle;align=center;" parent="n13ThCYYshuHah-QFAla-1" vertex="1">
          <mxGeometry x="535" y="110" width="100" height="40" as="geometry" />
        </mxCell>
        <mxCell id="1zFnjrXnWJbt8HgHoR2n-0" value="" style="verticalLabelPosition=bottom;shadow=0;dashed=0;align=center;html=1;verticalAlign=top;strokeWidth=1;shape=mxgraph.mockup.graphics.lineChart;strokeColor=none;strokeColor2=#666666;strokeColor3=#008cff;strokeColor4=#dddddd;" parent="n13ThCYYshuHah-QFAla-1" vertex="1">
          <mxGeometry x="50" y="190" width="660" height="540" as="geometry" />
        </mxCell>
        <mxCell id="1zFnjrXnWJbt8HgHoR2n-2" value="" style="rounded=0;whiteSpace=wrap;html=1;" parent="n13ThCYYshuHah-QFAla-1" vertex="1">
          <mxGeometry x="820" y="180" width="270" height="50" as="geometry" />
        </mxCell>
        <mxCell id="1zFnjrXnWJbt8HgHoR2n-4" value="" style="rounded=0;whiteSpace=wrap;html=1;" parent="n13ThCYYshuHah-QFAla-1" vertex="1">
          <mxGeometry x="820" y="260" width="270" height="50" as="geometry" />
        </mxCell>
        <mxCell id="1zFnjrXnWJbt8HgHoR2n-5" value="" style="rounded=0;whiteSpace=wrap;html=1;" parent="n13ThCYYshuHah-QFAla-1" vertex="1">
          <mxGeometry x="820" y="340" width="270" height="50" as="geometry" />
        </mxCell>
        <mxCell id="1zFnjrXnWJbt8HgHoR2n-6" value="End Date" style="text;strokeColor=none;fillColor=none;html=1;fontSize=24;fontStyle=1;verticalAlign=middle;align=center;" parent="n13ThCYYshuHah-QFAla-1" vertex="1">
          <mxGeometry x="820" y="260" width="120" height="40" as="geometry" />
        </mxCell>
        <mxCell id="1zFnjrXnWJbt8HgHoR2n-7" value="Start Date" style="text;strokeColor=none;fillColor=none;html=1;fontSize=24;fontStyle=1;verticalAlign=middle;align=center;" parent="n13ThCYYshuHah-QFAla-1" vertex="1">
          <mxGeometry x="820" y="180" width="130" height="40" as="geometry" />
        </mxCell>
        <mxCell id="1zFnjrXnWJbt8HgHoR2n-8" value="Aggregate" style="text;strokeColor=none;fillColor=none;html=1;fontSize=24;fontStyle=1;verticalAlign=middle;align=center;" parent="n13ThCYYshuHah-QFAla-1" vertex="1">
          <mxGeometry x="820" y="340" width="140" height="40" as="geometry" />
        </mxCell>
        <mxCell id="1zFnjrXnWJbt8HgHoR2n-9" value="" style="shape=image;html=1;verticalAlign=top;verticalLabelPosition=bottom;labelBackgroundColor=#ffffff;imageAspect=0;aspect=fixed;image=https://cdn1.iconfinder.com/data/icons/material-core/10/arrow-drop-down-128.png" parent="n13ThCYYshuHah-QFAla-1" vertex="1">
          <mxGeometry x="1050" y="350" width="30" height="30" as="geometry" />
        </mxCell>
        <mxCell id="1zFnjrXnWJbt8HgHoR2n-10" value="" style="shape=image;html=1;verticalAlign=top;verticalLabelPosition=bottom;labelBackgroundColor=#ffffff;imageAspect=0;aspect=fixed;image=https://cdn1.iconfinder.com/data/icons/material-core/10/arrow-drop-down-128.png" parent="n13ThCYYshuHah-QFAla-1" vertex="1">
          <mxGeometry x="1050" y="270" width="30" height="30" as="geometry" />
        </mxCell>
        <mxCell id="1zFnjrXnWJbt8HgHoR2n-11" value="" style="shape=image;html=1;verticalAlign=top;verticalLabelPosition=bottom;labelBackgroundColor=#ffffff;imageAspect=0;aspect=fixed;image=https://cdn1.iconfinder.com/data/icons/material-core/10/arrow-drop-down-128.png" parent="n13ThCYYshuHah-QFAla-1" vertex="1">
          <mxGeometry x="1050" y="190" width="30" height="30" as="geometry" />
        </mxCell>
        <mxCell id="7F0mO0Iv_oQnAJjySNfw-1" value="" style="rounded=0;whiteSpace=wrap;html=1;" parent="n13ThCYYshuHah-QFAla-1" vertex="1">
          <mxGeometry x="820" y="414" width="270" height="50" as="geometry" />
        </mxCell>
        <mxCell id="7F0mO0Iv_oQnAJjySNfw-2" value="" style="shape=image;html=1;verticalAlign=top;verticalLabelPosition=bottom;labelBackgroundColor=#ffffff;imageAspect=0;aspect=fixed;image=https://cdn1.iconfinder.com/data/icons/ionicons-sharp-vol-2/512/refresh-sharp-128.png" parent="n13ThCYYshuHah-QFAla-1" vertex="1">
          <mxGeometry x="1051" y="425" width="28" height="28" as="geometry" />
        </mxCell>
        <mxCell id="7F0mO0Iv_oQnAJjySNfw-3" value="Refresh" style="text;strokeColor=none;fillColor=none;html=1;fontSize=24;fontStyle=1;verticalAlign=middle;align=center;" parent="n13ThCYYshuHah-QFAla-1" vertex="1">
          <mxGeometry x="820" y="419" width="140" height="40" as="geometry" />
        </mxCell>
      </root>
    </mxGraphModel>
  </diagram>
</mxfile>
